# xmcd
#
# Track frame offsets:
#	150
#	19543
#	33005
#	55597
#	77647
#	96881
#	108581
#	122336
#	134691
#	149549
#	171383
#	195713
#	216428
#
# Disc length: 3168 seconds
#
# Revision: 0
# Processed by: cddbd v1.4PL0 Copyright (c) Steve Scherf et al.
# Submitted via: dBpowerAMP V4.0
#
DISCID=b40c5e0d
DTITLE=Michael John and the Bottom Line - Good Thing
DYEAR=2002
DGENRE=Blues
TTITLE0=Angel Muffin
TTITLE1=Dirty Tricks
TTITLE2=It's a Good Thing
TTITLE3=Feels Like Rain
TTITLE4=Gonna Stay the Same
TTITLE5=Understanding Woman
TTITLE6=The Way That I Do
TTITLE7=Blues Party
TTITLE8=All Hell's Cutting Loose
TTITLE9=How 'Bout You
TTITLE10=Another Bridge to Cross
TTITLE11=You Can, You Can!
TTITLE12=My Baby's Sweeter
EXTD=
EXTT0=
EXTT1=
EXTT2=
EXTT3=
EXTT4=
EXTT5=
EXTT6=
EXTT7=
EXTT8=
EXTT9=
EXTT10=
EXTT11=
EXTT12=
PLAYORDER=
